<?xml version="1.0" standalone="no"?>
<!DOCTYPE svg PUBLIC "-//W3C//DTD SVG 20010904//EN"
 "http://www.w3.org/TR/2001/REC-SVG-20010904/DTD/svg10.dtd">
<svg version="1.0" xmlns="http://www.w3.org/2000/svg"
 width="192.000000pt" height="192.000000pt" viewBox="0 0 192.000000 192.000000"
 preserveAspectRatio="xMidYMid meet">
<metadata>
Created by potrace 1.10, written by Peter Selinger 2001-2011
</metadata>
<g transform="translate(0.000000,192.000000) scale(0.100000,-0.100000)"
fill="#000000" stroke="none">
<path d="M855 1909 c-195 -20 -381 -101 -530 -232 -65 -57 -31 -54 47 4 123
92 137 100 193 112 30 6 55 16 55 23 0 6 17 15 37 19 21 4 49 12 63 20 14 7
57 18 95 25 82 15 169 38 140 38 -11 -1 -56 -4 -100 -9z"/>
<path d="M990 1902 c0 -10 23 -15 140 -28 41 -5 202 -60 254 -88 129 -68 218
-132 256 -182 47 -62 67 -91 73 -106 3 -10 11 -18 16 -18 6 0 20 -18 31 -40
11 -22 16 -40 10 -40 -19 0 -10 -15 22 -33 60 -34 24 -40 -185 -28 -176 10
-499 13 -437 5 14 -2 86 -8 160 -13 74 -5 145 -11 157 -14 12 -3 84 -7 160 -8
163 -2 187 -10 197 -66 4 -21 11 -51 16 -68 6 -16 15 -57 21 -89 15 -80 30
-52 20 34 -50 399 -428 757 -828 787 -57 4 -83 3 -83 -5z"/>
<path d="M1180 1675 c0 -28 12 -32 30 -10 14 16 6 35 -16 35 -8 0 -14 -10 -14
-25z"/>
<path d="M428 1643 c-34 -40 -68 -131 -68 -185 0 -51 16 -48 24 3 10 64 18 39
22 -68 1 -54 8 -152 14 -218 5 -66 7 -131 3 -145 -13 -49 -15 -217 -2 -325 12
-114 14 -278 3 -330 -5 -25 -4 -28 7 -17 15 14 16 115 10 847 -3 292 -1 406 7
422 20 37 7 47 -20 16z"/>
<path d="M640 1645 c-9 -10 -17 -12 -30 -5 -11 6 -22 5 -32 -3 -21 -17 -48
-64 -48 -82 0 -27 19 -16 34 19 8 18 19 37 25 40 20 13 11 -30 -19 -90 -19
-38 -26 -62 -20 -68 15 -15 25 0 64 89 52 120 80 114 31 -7 -17 -41 -22 -65
-15 -72 13 -13 14 -11 49 69 16 38 34 71 40 73 15 5 14 -19 -4 -61 -30 -72
-13 -117 30 -77 l23 22 11 -21 c19 -35 53 -26 107 32 27 28 56 67 63 85 13 30
31 44 31 22 0 -14 -51 -120 -61 -126 -15 -9 -10 -34 6 -34 8 0 30 30 49 68 53
106 99 130 57 31 -11 -28 -21 -62 -21 -76 0 -28 24 -40 46 -22 21 17 56 88 51
102 -2 7 -13 -7 -25 -30 -41 -79 -58 -61 -21 22 17 38 19 52 10 71 -11 25 -27
30 -50 15 -10 -7 -19 -4 -26 6 -18 25 -41 9 -66 -44 l-23 -48 -5 50 c-6 48 -7
50 -35 48 -38 -3 -57 -22 -89 -88 -41 -82 -66 -84 -32 -2 8 20 15 46 15 57 0
25 -26 37 -50 23 -13 -9 -19 -7 -28 8 -15 23 -25 24 -42 4z m213 -86 c6 -47
-8 -79 -35 -79 -23 0 -24 34 -3 84 20 47 31 46 38 -5z"/>
<path d="M1260 1637 c-13 -7 -39 -39 -58 -72 -62 -111 -89 -117 -43 -9 19 45
26 72 20 79 -13 13 -20 0 -54 -101 -24 -71 -35 -91 -67 -117 -69 -55 -100
-136 -64 -166 23 -19 61 23 95 103 17 41 45 89 63 106 32 33 32 33 46 11 22
-32 57 -26 89 14 l27 34 11 -32 c15 -48 54 -49 92 -3 33 42 43 45 43 13 0 -28
17 -47 43 -47 19 0 116 86 117 103 0 5 -8 6 -17 3 -15 -5 -18 1 -18 42 0 46
-1 47 -29 45 -35 -3 -63 -27 -81 -70 -20 -48 -33 -40 -27 17 3 39 1 51 -11 56
-28 10 -70 -19 -92 -63 -11 -24 -22 -43 -25 -43 -3 0 -5 24 -5 52 0 58 -11 68
-55 45z m50 -53 c0 -13 -4 -24 -9 -24 -13 0 -24 37 -16 50 10 16 25 1 25 -26z
m130 6 c0 -10 -4 -21 -9 -25 -12 -7 -25 31 -16 45 9 15 25 2 25 -20z m130 -1
c0 -17 -4 -28 -10 -24 -5 3 -10 17 -10 31 0 13 5 24 10 24 6 0 10 -14 10 -31z
m-302 -86 c-14 -28 -48 -31 -48 -4 0 23 20 82 34 100 17 21 30 -67 14 -96z
m135 55 c7 -50 -6 -78 -35 -78 -19 0 -20 4 -14 41 7 46 22 79 35 79 5 0 11
-19 14 -42z m132 31 c-4 -5 -1 -24 6 -40 11 -27 10 -33 -9 -51 -28 -29 -55
-18 -46 19 10 40 33 83 45 83 6 0 7 -5 4 -11z m-465 -216 c-1 -16 -45 -87 -57
-91 -21 -6 -15 20 12 61 23 34 45 48 45 30z"/>
<path d="M257 1609 c-17 -10 -77 -91 -96 -130 -10 -19 -5 -16 22 12 19 19 39
44 45 54 8 15 23 20 68 22 56 2 105 23 54 23 -14 0 -37 6 -51 14 -16 8 -32 10
-42 5z"/>
<path d="M460 1580 c0 -5 11 -10 24 -10 14 0 28 5 31 10 4 6 -7 10 -24 10 -17
0 -31 -4 -31 -10z"/>
<path d="M121 1420 c-54 -88 -103 -252 -99 -334 1 -37 2 -38 5 -8 4 31 5 32
56 33 89 2 112 15 35 20 -72 5 -85 10 -72 31 5 7 9 20 11 28 3 25 34 124 45
147 15 30 22 32 138 34 94 1 121 9 84 23 -9 3 -52 6 -95 6 -44 0 -78 3 -76 8
3 4 1 16 -3 27 -6 18 -9 17 -29 -15z"/>
<path d="M560 1402 c-61 -3 -90 -10 -90 -22 0 -6 42 -9 105 -7 58 1 105 -1
105 -5 0 -4 5 -8 11 -8 5 0 7 5 4 10 -3 6 1 10 10 10 9 0 13 -4 10 -10 -7 -12
8 -14 19 -2 8 7 15 8 109 10 36 1 56 6 52 12 -4 6 -37 8 -78 6 -40 -2 -103 -1
-142 3 -38 3 -90 5 -115 3z"/>
<path d="M513 1153 c20 -2 54 -2 75 0 20 2 3 4 -38 4 -41 0 -58 -2 -37 -4z"/>
<path d="M1891 883 c-1 -12 -11 -31 -23 -43 -18 -17 -19 -20 -5 -20 21 0 21
-3 -3 -86 -68 -227 -196 -410 -370 -530 -105 -71 -250 -135 -340 -149 -123
-18 -141 -50 -20 -34 180 23 400 142 536 290 84 92 164 229 203 349 30 91 44
190 32 220 -9 24 -10 24 -10 3z"/>
<path d="M17 866 c-17 -43 31 -222 90 -341 132 -263 412 -471 680 -504 92 -11
94 2 5 28 -140 40 -206 63 -263 92 -60 30 -149 93 -162 116 -4 7 -13 13 -19
13 -13 0 -60 51 -133 147 -57 74 -137 231 -150 293 -4 19 -13 50 -21 67 -11
29 -11 34 4 43 12 8 14 13 5 16 -7 3 -13 12 -13 19 0 20 -17 27 -23 11z"/>
<path d="M644 436 c-63 -28 -93 -96 -56 -129 41 -38 106 -16 179 59 29 29 57
54 63 54 21 0 8 -32 -30 -74 -43 -47 -48 -56 -26 -56 8 0 40 29 71 65 55 62
85 80 85 52 0 -7 -13 -31 -30 -53 -33 -44 -36 -54 -17 -54 8 0 28 21 46 46 32
44 75 74 88 61 3 -4 -6 -25 -22 -47 -50 -72 -4 -97 65 -34 22 20 37 41 34 46
-4 5 -23 -7 -44 -27 -45 -44 -63 -31 -26 18 31 41 32 53 5 67 -16 9 -26 8 -43
-4 -21 -13 -25 -13 -43 6 -19 18 -22 19 -50 5 -19 -10 -34 -12 -44 -6 -26 16
-39 9 -98 -50 -64 -65 -112 -85 -139 -57 -21 21 -3 59 40 86 41 25 51 25 43 1
-8 -26 10 -35 29 -15 21 20 20 31 -3 44 -25 13 -39 12 -77 -4z"/>
<path d="M495 320 c-8 -13 3 -30 20 -30 14 0 27 24 18 34 -10 9 -31 7 -38 -4z"/>
</g>
</svg>
